<svg width="15" height="18" viewBox="0 0 15 18" fill="none" xmlns="http://www.w3.org/2000/svg">
<path d="M12.6875 5.83333C12.187 5.83333 11.7812 5.42759 11.7812 4.92708V4.16667C11.7812 1.86667 9.75125 0 7.25 0C4.74875 0 2.71875 1.86667 2.71875 4.16667V4.92708C2.71875 5.42759 2.31301 5.83333 1.8125 5.83333C0.815625 5.83333 0 6.58333 0 7.5V15.8333C0 16.75 0.815625 17.5 1.8125 17.5H12.6875C13.6844 17.5 14.5 16.75 14.5 15.8333V7.5C14.5 6.58333 13.6844 5.83333 12.6875 5.83333ZM7.25 13.3333C6.25313 13.3333 5.4375 12.5833 5.4375 11.6667C5.4375 10.75 6.25313 10 7.25 10C8.24687 10 9.0625 10.75 9.0625 11.6667C9.0625 12.5833 8.24687 13.3333 7.25 13.3333ZM10.0594 4.16667C10.0594 5.08714 9.31318 5.83333 8.39271 5.83333H6.10729C5.18682 5.83333 4.44062 5.08714 4.44062 4.16667C4.44062 2.74167 5.70031 1.58333 7.25 1.58333C8.79969 1.58333 10.0594 2.74167 10.0594 4.16667Z" fill="#ED563B"/>
</svg>
