<svg width="18" height="19" viewBox="0 0 18 19" fill="none" xmlns="http://www.w3.org/2000/svg">
<path d="M9 0.24939C4.032 0.24939 0 4.28139 0 9.24939C0 14.2174 4.032 18.2494 9 18.2494C13.968 18.2494 18 14.2174 18 9.24939C18 4.28139 13.968 0.24939 9 0.24939ZM9 2.94939C10.494 2.94939 11.7 4.15539 11.7 5.64939C11.7 7.14339 10.494 8.34939 9 8.34939C7.506 8.34939 6.3 7.14339 6.3 5.64939C6.3 4.15539 7.506 2.94939 9 2.94939ZM9 15.7294C4.84238 15.7294 4.71453 10.1622 8.87091 10.061C8.91486 10.0599 8.95792 10.0594 9 10.0594C9.04176 10.0594 9.0845 10.0599 9.12814 10.061C13.2845 10.1624 13.1576 15.7294 9 15.7294Z" fill="#ED563B"/>
</svg>
